<svg xmlns="http://www.w3.org/2000/svg" width="88.525" height="107.735" viewBox="0 0 88.525 107.735"><defs><style>.a{fill:#deaf14;fill-rule:evenodd;}</style></defs><g transform="translate(0 0)"><path class="a" d="M13.507,11.4H6.346A6.749,6.749,0,0,0,0,17.846C0,32.882,4.231,41.64,17.412,49.9A54.445,54.445,0,0,0,39.543,74.027l-2.115,4.957H51.1l-2.115-4.957A54.445,54.445,0,0,0,71.113,49.9c13.181-8.262,17.412-17.02,17.412-32.056A6.749,6.749,0,0,0,82.178,11.4h-7.16C75.018-3.8,13.507-3.8,13.507,11.4ZM44.262,40.979,33.2,49.076,37.1,35.361,26.037,27.43h14.32l3.906-13.715L48.168,27.43h14.32L51.422,35.361l3.906,13.715Zm7.16,38.666c2.278,0,2.929,2.974,3.092,4.957H34.01c.163-1.983.814-4.957,3.092-4.957Zm5.533,5.618c1.79,0,3.417,3.635,4.231,4.957H27.339c.814-1.322,2.441-4.957,4.231-4.957Zm4.719,5.618a.805.805,0,0,1,.814.826v13.55a3.7,3.7,0,0,1-2.441,2.479H28.478a3.7,3.7,0,0,1-2.441-2.479V91.707a.805.805,0,0,1,.814-.826H61.674ZM75.018,16.193h7.16a1.764,1.764,0,0,1,1.627,1.652c0,10.245-1.3,17.185-10.252,23.96C73.554,41.805,75.018,18.341,75.018,16.193Zm-61.512,0H6.346a1.764,1.764,0,0,0-1.627,1.652c0,10.245,1.3,17.185,10.252,23.96C14.971,41.805,13.507,18.341,13.507,16.193Z"/></g></svg>